<svg width="114" height="40" viewBox="0 0 114 40" fill="none" xmlns="http://www.w3.org/2000/svg">
<rect width="40" height="40" rx="7" fill="#1890ff"/>
<path d="M32.168 15.44C31.1028 15.14 30.6377 15.095 30.6377 15.095C30.4577 15.065 29.7526 14.945 28.7924 14.915C28.0273 14.795 27.2322 14.585 26.7071 14.15C26.137 13.67 25.1768 12.845 24.8018 12.65C24.7868 12.635 24.7718 12.635 24.7568 12.635C23.3165 11.6 21.5612 11 19.6709 11C17.5106 11 15.5452 11.765 14.015 13.04C13.5799 13.37 13.0548 13.82 12.6948 14.135C12.1697 14.585 11.3746 14.78 10.6094 14.9C9.64928 14.93 8.94416 15.065 8.76413 15.08C8.76413 15.08 8.34406 15.125 7.3539 15.395C6.91883 15.515 6.87382 16.115 7.27889 16.31C7.27889 16.31 7.29389 16.31 7.29389 16.325C7.939 16.64 8.5541 17.15 9.31922 18.365C10.2344 19.805 10.3994 20.72 10.9845 22.1C11.9297 26.06 15.4552 29 19.6559 29C23.7066 29 27.1271 26.27 28.2223 22.535C28.9724 20.9 29.0775 19.955 30.0826 18.365C30.8477 17.15 31.4628 16.64 32.108 16.325C32.153 16.31 32.198 16.28 32.243 16.265C32.618 16.1 32.573 15.545 32.168 15.44ZM16.2354 22.37C15.0352 22.04 14.285 20.93 14.285 20.93C14.285 20.93 15.5752 19.985 16.7754 20.315C17.9756 20.645 18.6357 22.115 18.6357 22.115C18.6357 22.115 17.4356 22.7 16.2354 22.37ZM23.3765 22.37C22.1763 22.7 20.9761 22.1 20.9761 22.1C20.9761 22.1 21.6212 20.63 22.8364 20.3C24.0366 19.97 25.3268 20.915 25.3268 20.915C25.3268 20.915 24.5767 22.055 23.3765 22.37Z" fill="white"/>
<path d="M53.904 29H57.216V21.968L63.12 11.72H59.304L55.56 18.224L51.816 11.72H48L53.904 21.968V29ZM71.2523 29.36C72.9803 29.36 74.4683 28.984 75.7162 28.232C76.9723 27.48 77.9363 26.428 78.6083 25.076C79.2883 23.724 79.6283 22.152 79.6283 20.36C79.6283 18.568 79.2883 16.996 78.6083 15.644C77.9363 14.292 76.9723 13.24 75.7162 12.488C74.4683 11.736 72.9803 11.36 71.2523 11.36C69.5243 11.36 68.0323 11.736 66.7763 12.488C65.5283 13.24 64.5643 14.292 63.8843 15.644C63.2123 16.996 62.8763 18.568 62.8763 20.36C62.8763 22.152 63.2123 23.724 63.8843 25.076C64.5643 26.428 65.5283 27.48 66.7763 28.232C68.0323 28.984 69.5243 29.36 71.2523 29.36ZM71.2523 26.288C69.6123 26.264 68.3803 25.72 67.5563 24.656C66.7403 23.592 66.3323 22.16 66.3323 20.36C66.3323 18.56 66.7403 17.116 67.5563 16.028C68.3803 14.94 69.6123 14.408 71.2523 14.432C72.9003 14.456 74.1323 15 74.9483 16.064C75.7643 17.128 76.1723 18.56 76.1723 20.36C76.1723 22.16 75.7643 23.604 74.9483 24.692C74.1323 25.78 72.9003 26.312 71.2523 26.288ZM82.0238 29H87.6158C87.7518 29 88.0318 28.996 88.4558 28.988C88.8798 28.98 89.2878 28.952 89.6798 28.904C91.0718 28.736 92.2518 28.252 93.2198 27.452C94.1878 26.652 94.9238 25.636 95.4278 24.404C95.9318 23.172 96.1838 21.824 96.1838 20.36C96.1838 18.896 95.9318 17.548 95.4278 16.316C94.9238 15.084 94.1878 14.068 93.2198 13.268C92.2518 12.468 91.0718 11.984 89.6798 11.816C89.2878 11.768 88.8798 11.74 88.4558 11.732C88.0318 11.724 87.7518 11.72 87.6158 11.72H82.0238V29ZM85.3358 25.928V14.792H87.6158C87.8318 14.792 88.1238 14.796 88.4918 14.804C88.8598 14.812 89.1918 14.848 89.4878 14.912C90.2158 15.056 90.8198 15.396 91.2998 15.932C91.7798 16.468 92.1358 17.124 92.3678 17.9C92.6078 18.676 92.7278 19.496 92.7278 20.36C92.7278 21.184 92.6118 21.984 92.3798 22.76C92.1558 23.536 91.8038 24.2 91.3238 24.752C90.8518 25.304 90.2398 25.656 89.4878 25.808C89.1918 25.864 88.8598 25.9 88.4918 25.916C88.1238 25.924 87.8318 25.928 87.6158 25.928H85.3358ZM97.3941 29H100.754L101.846 25.4H108.35L109.466 29H112.826L107.546 11.72H102.674L97.3941 29ZM102.77 22.352L105.074 14.78L107.414 22.352H102.77Z" fill="#2D3436"/>
</svg>
