<svg width="113" height="40" viewBox="0 0 113 40" fill="none" xmlns="http://www.w3.org/2000/svg">
<rect x="73" width="40" height="40" rx="7" fill="#1890ff"/>
<path d="M105.168 15.44C104.103 15.14 103.637 15.095 103.637 15.095C103.457 15.065 102.752 14.945 101.792 14.915C101.027 14.795 100.232 14.585 99.7068 14.15C99.1367 13.67 98.1766 12.845 97.8015 12.65C97.7865 12.635 97.7715 12.635 97.7565 12.635C96.3163 11.6 94.561 11 92.6707 11C90.5103 11 88.545 11.765 87.0148 13.04C86.5797 13.37 86.0546 13.82 85.6945 14.135C85.1695 14.585 84.3743 14.78 83.6092 14.9C82.649 14.93 81.9439 15.065 81.7639 15.08C81.7639 15.08 81.3438 15.125 80.3537 15.395C79.9186 15.515 79.8736 16.115 80.2787 16.31C80.2787 16.31 80.2937 16.31 80.2937 16.325C80.9388 16.64 81.5539 17.15 82.319 18.365C83.2341 19.805 83.3992 20.72 83.9843 22.1C84.9294 26.06 88.455 29 92.6557 29C96.7064 29 100.127 26.27 101.222 22.535C101.972 20.9 102.077 19.955 103.082 18.365C103.848 17.15 104.463 16.64 105.108 16.325C105.153 16.31 105.198 16.28 105.243 16.265C105.618 16.1 105.573 15.545 105.168 15.44ZM89.2351 22.37C88.0349 22.04 87.2848 20.93 87.2848 20.93C87.2848 20.93 88.575 19.985 89.7752 20.315C90.9754 20.645 91.6355 22.115 91.6355 22.115C91.6355 22.115 90.4353 22.7 89.2351 22.37ZM96.3763 22.37C95.1761 22.7 93.9759 22.1 93.9759 22.1C93.9759 22.1 94.621 20.63 95.8362 20.3C97.0364 19.97 98.3266 20.915 98.3266 20.915C98.3266 20.915 97.5765 22.055 96.3763 22.37Z" fill="white"/>
<path d="M5.904 29H9.216V21.968L15.12 11.72H11.304L7.56 18.224L3.816 11.72H0L5.904 21.968V29ZM23.2523 29.36C24.9803 29.36 26.4683 28.984 27.7162 28.232C28.9723 27.48 29.9363 26.428 30.6083 25.076C31.2883 23.724 31.6283 22.152 31.6283 20.36C31.6283 18.568 31.2883 16.996 30.6083 15.644C29.9363 14.292 28.9723 13.24 27.7162 12.488C26.4683 11.736 24.9803 11.36 23.2523 11.36C21.5243 11.36 20.0323 11.736 18.7763 12.488C17.5283 13.24 16.5643 14.292 15.8843 15.644C15.2123 16.996 14.8763 18.568 14.8763 20.36C14.8763 22.152 15.2123 23.724 15.8843 25.076C16.5643 26.428 17.5283 27.48 18.7763 28.232C20.0323 28.984 21.5243 29.36 23.2523 29.36ZM23.2523 26.288C21.6123 26.264 20.3803 25.72 19.5563 24.656C18.7403 23.592 18.3323 22.16 18.3323 20.36C18.3323 18.56 18.7403 17.116 19.5563 16.028C20.3803 14.94 21.6123 14.408 23.2523 14.432C24.9003 14.456 26.1323 15 26.9483 16.064C27.7643 17.128 28.1723 18.56 28.1723 20.36C28.1723 22.16 27.7643 23.604 26.9483 24.692C26.1323 25.78 24.9003 26.312 23.2523 26.288ZM34.0238 29H39.6158C39.7518 29 40.0318 28.996 40.4558 28.988C40.8798 28.98 41.2878 28.952 41.6798 28.904C43.0718 28.736 44.2518 28.252 45.2198 27.452C46.1878 26.652 46.9238 25.636 47.4278 24.404C47.9318 23.172 48.1838 21.824 48.1838 20.36C48.1838 18.896 47.9318 17.548 47.4278 16.316C46.9238 15.084 46.1878 14.068 45.2198 13.268C44.2518 12.468 43.0718 11.984 41.6798 11.816C41.2878 11.768 40.8798 11.74 40.4558 11.732C40.0318 11.724 39.7518 11.72 39.6158 11.72H34.0238V29ZM37.3358 25.928V14.792H39.6158C39.8318 14.792 40.1238 14.796 40.4918 14.804C40.8598 14.812 41.1918 14.848 41.4878 14.912C42.2158 15.056 42.8198 15.396 43.2998 15.932C43.7798 16.468 44.1358 17.124 44.3678 17.9C44.6078 18.676 44.7278 19.496 44.7278 20.36C44.7278 21.184 44.6118 21.984 44.3798 22.76C44.1558 23.536 43.8038 24.2 43.3238 24.752C42.8518 25.304 42.2398 25.656 41.4878 25.808C41.1918 25.864 40.8598 25.9 40.4918 25.916C40.1238 25.924 39.8318 25.928 39.6158 25.928H37.3358ZM49.3941 29H52.7541L53.8461 25.4H60.3501L61.4661 29H64.8261L59.5461 11.72H54.6741L49.3941 29ZM54.7701 22.352L57.0741 14.78L59.4141 22.352H54.7701Z" fill="#2D3436"/>
</svg>
